<svg width="35" height="33" viewBox="0 0 35 33" fill="none" xmlns="http://www.w3.org/2000/svg">
<path d="M33.95 22H31.5C31.3075 22 31.15 22.1547 31.15 22.3438V29.9062H23.45C23.2575 29.9062 23.1 30.0609 23.1 30.25V32.6562C23.1 32.8453 23.2575 33 23.45 33H31.325C32.97 33 34.3 31.6937 34.3 30.0781V22.3438C34.3 22.1547 34.1425 22 33.95 22ZM11.55 29.9062H3.85V22.3438C3.85 22.1547 3.6925 22 3.5 22H1.05C0.857502 22 0.700001 22.1547 0.700001 22.3438V30.0781C0.700001 31.6937 2.03 33 3.675 33H11.55C11.7425 33 11.9 32.8453 11.9 32.6562V30.25C11.9 30.0609 11.7425 29.9062 11.55 29.9062ZM23.45 3.09375H31.15V10.6562C31.15 10.8453 31.3075 11 31.5 11H33.95C34.1425 11 34.3 10.8453 34.3 10.6562V2.92188C34.3 1.30625 32.97 0 31.325 0H23.45C23.2575 0 23.1 0.154686 23.1 0.34375V2.75C23.1 2.93906 23.2575 3.09375 23.45 3.09375ZM1.05 11H3.5C3.6925 11 3.85 10.8453 3.85 10.6562V3.09375H11.55C11.7425 3.09375 11.9 2.93906 11.9 2.75V0.34375C11.9 0.154686 11.7425 0 11.55 0H3.675C2.03 0 0.700001 1.30625 0.700001 2.92188V10.6562C0.700001 10.8453 0.857502 11 1.05 11ZM0.350002 18.0469H34.65C34.8425 18.0469 35 17.8922 35 17.7031V15.2969C35 15.1078 34.8425 14.9531 34.65 14.9531H0.350002C0.157501 14.9531 0 15.1078 0 15.2969V17.7031C0 17.8922 0.157501 18.0469 0.350002 18.0469Z" fill="#202020"/>
</svg>
